<?xml version="1.0" encoding="UTF-8" standalone="no"?>
<svg
   style="enable-background:new 0 0 24 24;"
   version="1.1"
   viewBox="0 0 24 24"
   xml:space="preserve"
   id="svg2"
   sodipodi:docname="logo-grey.svg"
   inkscape:version="1.3.2 (091e20e, 2023-11-25, custom)"
   inkscape:export-filename="icon-256.png"
   inkscape:export-xdpi="1024"
   inkscape:export-ydpi="1024"
   xmlns:inkscape="http://www.inkscape.org/namespaces/inkscape"
   xmlns:sodipodi="http://sodipodi.sourceforge.net/DTD/sodipodi-0.dtd"
   xmlns="http://www.w3.org/2000/svg"
   xmlns:svg="http://www.w3.org/2000/svg"><defs
     id="defs2" /><sodipodi:namedview
     id="namedview2"
     pagecolor="#ffffff"
     bordercolor="#000000"
     borderopacity="0.25"
     inkscape:showpageshadow="2"
     inkscape:pageopacity="0.0"
     inkscape:pagecheckerboard="0"
     inkscape:deskcolor="#d1d1d1"
     showguides="true"
     inkscape:zoom="27.166667"
     inkscape:cx="8.8343557"
     inkscape:cy="12.662577"
     inkscape:window-width="1440"
     inkscape:window-height="890"
     inkscape:window-x="-6"
     inkscape:window-y="-6"
     inkscape:window-maximized="1"
     inkscape:current-layer="_icons"
     inkscape:export-bgcolor="#ffba4dff" /><style
     type="text/css"
     id="style1">
	.st0{opacity:0.2;fill:none;stroke:#000000;stroke-width:5.000000e-02;stroke-miterlimit:10;}
</style><g
     id="grid_system" /><g
     id="_icons"><path
       d="M 3.4417178,7.3251533 H 20.705521 V 24.588957 H 3.4417178 Z"
       fill="none"
       stroke="none"
       id="path1"
       style="stroke-width:1.43865;stroke-linecap:round;stroke-linejoin:round" /><path
       d="M 18.680806,5.8363589 C 18.417089,5.221021 18.065469,4.605684 17.538036,4.1661572 16.483172,3.1112931 14.988781,2.5838611 13.494391,2.7596718 13.406485,2.5838611 13.230675,2.4959557 13.142769,2.4080505 12.35162,1.4410916 11.120947,0.9136594 9.8023672,0.9136594 c -1.3185811,0 -2.5492558,0.5274322 -3.4283092,1.4064857 -0.8790534,0.8790534 -1.4064855,2.1097281 -1.4064855,3.4283081 0,0.087902 0,0.1758114 0,0.263716 C 4.7917618,6.1879807 4.5280458,6.2758854 4.352235,6.5396014 3.561087,7.2428439 3.2094656,8.2977083 3.2094656,9.3525735 c 0,2.1097295 1.7581069,3.8678355 3.9557406,3.8678355 0.527432,0 0.8790534,-0.351622 0.8790534,-0.879054 0,-0.527431 -0.3516214,-0.879052 -0.8790534,-0.879052 -1.2306749,0 -2.1976337,-0.966959 -2.1976337,-2.1976359 0,-0.615337 0.2637161,-1.1427692 0.6153375,-1.5822957 C 5.7587206,7.50656 6.0224367,7.3307496 6.1982474,7.2428439 6.5498688,7.0670335 6.8135848,6.7154118 6.7256794,6.2758854 c 0,-0.1758105 0,-0.3516208 0,-0.5274322 0,-0.7911482 0.3516214,-1.582296 0.8790535,-2.1976333 1.1427693,-1.1427694 3.1645911,-1.1427694 4.3073611,0 0.17581,0.1758107 0.351621,0.3516213 0.439526,0.6153373 0.175811,0.3516214 0.615338,0.4395268 0.966959,0.3516214 0.351622,-0.087905 0.615338,-0.087905 0.879054,-0.087905 0.791148,0 1.582297,0.3516217 2.197634,0.8790539 0.351621,0.3516218 0.615338,0.7911481 0.791147,1.3185803 0.0879,0.2637161 0.263717,0.4395264 0.527433,0.6153369 0.791148,0.3516217 1.31858,1.1427699 1.31858,2.0218226 0,0.6153383 -0.263716,1.1427707 -0.615338,1.5822977 -0.439526,0.439527 -0.966958,0.615338 -1.582296,0.615338 -0.527431,0 -0.879052,0.351621 -0.879052,0.879052 0,0.527432 0.351621,0.879054 0.879052,0.879054 1.054864,0 2.021823,-0.439526 2.812971,-1.14277 0.791148,-0.703243 1.14277,-1.758107 1.14277,-2.8129717 0,-1.4943905 -0.791148,-2.8129699 -2.109728,-3.4283084 z"
       id="path2"
       style="stroke-width:0.879;stroke-dasharray:none;fill:#333333;fill-opacity:1" /><g
       id="g1"
       transform="translate(-0.09202495,-0.1472394)"><path
         d="m 9.7165055,9.4107275 v 3.6211655 0.846626 8.480061"
         id="path2-4"
         sodipodi:nodetypes="cccc"
         style="fill:none;stroke:#333333;stroke-width:1.75;stroke-linecap:round;stroke-linejoin:round;stroke-dasharray:none;stroke-opacity:1" /><path
         d="M 14.467544,9.4107275 V 22.35858"
         id="path3"
         style="fill:none;stroke:#333333;stroke-width:1.75;stroke-linecap:round;stroke-linejoin:round;stroke-dasharray:none;stroke-opacity:1" /><path
         d="M 9.7326963,15.992355 H 14.364307"
         id="path5"
         style="fill:none;stroke:#333333;stroke-width:1.75;stroke-linecap:round;stroke-linejoin:round;stroke-dasharray:none;stroke-opacity:1" /><path
         d="M 9.7905227,12.115399 H 14.306481"
         id="path6"
         style="fill:none;stroke:#333333;stroke-width:1.74999;stroke-linecap:round;stroke-linejoin:round;stroke-dasharray:none;stroke-opacity:1" /><path
         d="M 9.7735006,19.869317 H 14.323503"
         id="path7"
         style="fill:none;stroke:#333333;stroke-width:1.75;stroke-linecap:round;stroke-linejoin:round;stroke-dasharray:none;stroke-opacity:1" /></g></g></svg>
